<?xml version="1.0" encoding="UTF-8"?>
<svg id="Layer_1" xmlns="http://www.w3.org/2000/svg" version="1.1" xmlns:xlink="http://www.w3.org/1999/xlink" viewBox="0 0 56 56">
  <!-- Generator: Adobe Illustrator 29.3.0, SVG Export Plug-In . SVG Version: 2.1.0 Build 146)  -->
  <defs>
    <style>
      .st0 {
        fill: #e7a93d;
      }

      .st1 {
        fill: #f5ba42;
      }

      .st2 {
        fill: #fecd54;
      }

      .st3 {
        fill: #022e71;
      }
    </style>
    <filter id="drop-shadow-1" x="0" y="0" width="56" height="56" filterUnits="userSpaceOnUse">
      <feOffset dx="0" dy="0"/>
      <feGaussianBlur result="blur" stdDeviation="7.08"/>
      <feFlood flood-color="#000" flood-opacity=".5"/>
      <feComposite in2="blur" operator="in"/>
      <feComposite in="SourceGraphic"/>
    </filter>
  </defs>
  <circle class="st3" cx="28" cy="28" r="28"/>
  <g>
    <g>
      <g>
        <path class="st2" d="M42.03,23.6c-.07.24-.28.42-.63.51-4.5,2.07-9.1,4.17-13.66,6.21-1.44.65-2.93,1.3-4.38,1.86-.09.03-.46,0-.45-.14-.35-2.35-.95-4.67-1.35-7.01v-.18c5.71-2.58,11.42-5.17,17.14-7.76l.46-.03c1.02,2.14,1.98,4.33,2.87,6.53Z"/>
        <polygon class="st1" points="39.16 17.07 21.56 25.03 15.82 23.44 33.42 15.67 39.16 17.07"/>
      </g>
      <path class="st1" d="M45.37,24.48l-19.12,8.68-3.34-.97s0-.1,0-.15c.18.13.36,0,.53-.07,5.83-2.35,11.65-5.28,17.44-7.8.37-.16.8-.36,1.14-.57,1.02.43,2.34.49,3.35.88Z"/>
    </g>
    <g>
      <path class="st2" d="M45.37,24.48c.1.04.22.06.26.18.74,2.03,1.91,4.02,2.64,6.03.04.11.15.29.09.4l-20.75,9.24-1.35-7.17v-.18c6.24-2.84,12.49-5.67,18.74-8.51h.37Z"/>
      <path class="st1" d="M13.99,27.11c-.36.73-.7,1.49-1.04,2.23l-2.31-.72c.89-.63,2.38-.94,3.35-1.51Z"/>
      <g>
        <path class="st0" d="M21.56,25.03c.06.1.11.2.16.3s.09.2.11.31c.41,1.9.78,3.82,1.14,5.73.02.23,0,.45-.06.67.05.11.21.15.47.12l2.82.82.05.18.17.02,1.33,7.02-.14.12-19.99-5.73v-.24l2.86-5.68c.03-.08.14-.04.16-.05l.33-.06,1.91.59c.24-.78.61-1.46,1.1-2.04.6-1.22,1.23-2.44,1.83-3.66l.44-.04,5.25,1.46.05.18Z"/>
        <polygon class="st2" points="20.6 31.49 17.69 37.3 16.22 30.29 20.6 31.49"/>
      </g>
    </g>
  </g>
  <path class="st2" d="M44.08,14.89c-1.7,0-3.08-1.38-3.08-3.08,0,1.7-1.38,3.08-3.08,3.08,1.7,0,3.08,1.38,3.08,3.08,0-1.7,1.38-3.08,3.08-3.08"/>
  <path class="st2" d="M44.08,14.89c-1.7,0-3.08-1.38-3.08-3.08,0,1.7-1.38,3.08-3.08,3.08,1.7,0,3.08,1.38,3.08,3.08,0-1.7,1.38-3.08,3.08-3.08"/>
</svg>