<svg width="346" height="452" viewBox="0 0 346 452" fill="none" xmlns="http://www.w3.org/2000/svg">
<path d="M30.85 217.949C30.85 217.949 46.2229 205.005 62.8327 219.655C71.5861 227.378 73.0639 235.139 72.1445 241.294C74.8017 237.266 76.9302 233.727 78.4961 230.952C79.3336 222.536 83.2752 206.424 100.982 198.721C100.982 198.721 105.276 220.258 82.9488 233.847C81.4251 236.508 79.4868 239.766 77.0324 243.524C82.2464 240.466 89.199 238.858 97.3928 243.02C116.726 252.831 112.655 273.629 112.655 273.629C99.9284 252.579 78.8135 252.246 70.3732 253.054C66.9876 257.668 63.0394 262.587 58.5471 267.696C63.8031 265.442 70.5853 264.723 77.857 269.684C94.6735 281.141 88.0373 298.493 88.0373 298.493C78.989 277.516 59.4247 275.268 51.509 275.276C47.1634 279.736 42.4444 284.197 37.2505 288.563C42.8328 286.788 49.5907 286.528 55.6478 291.534C69.5638 303.054 62.5919 319.284 62.5919 319.284C55.087 298.329 37.1194 295.279 29.2834 294.969C24.8434 298.314 20.033 301.487 15.0362 304.551C19.0276 304.152 23.0809 304.707 26.639 306.853C42.7162 316.613 38.6033 332.674 38.6033 332.674C27.5898 315.826 10.1769 312.093 2.92817 311.261C-3.12939 314.317 -9.43789 317.183 -16.2048 319.576C-17.1752 319.914 -18.2859 319.641 -19.0333 318.943C-19.2867 318.706 -19.5068 318.413 -19.6684 318.087C-20.2539 316.797 -19.6768 315.391 -18.3757 314.925C-11.4664 312.49 -5.0534 309.547 1.0959 306.402C2.90744 299.333 4.24787 285.095 -8.07191 270.456C-8.07191 270.456 10.1656 272.906 14.1206 290.258C14.9318 293.791 14.1634 297.071 12.5081 299.982C17.2822 297.037 21.8942 293.984 26.1597 290.76C26.8075 283.325 25.3849 267.859 4.84782 259.217C4.84782 259.217 21.7121 250.835 33.1623 268.201C37.0367 274.095 36.3528 279.683 34.2415 284.243C39.1222 280.108 43.5406 275.891 47.6339 271.676C46.4891 263.833 41.4151 245.588 18.5889 239.023C18.5889 239.023 35.9063 230.322 50.0337 245.427C56.1458 251.948 56.3045 258.674 54.6479 264.095C58.9122 259.232 62.6677 254.548 65.8964 250.159C63.8581 242.048 56.2812 221.791 30.8144 217.959L30.85 217.949Z" fill="#FCE8D6"/>
<path d="M187.509 205.191C185.615 203.071 184.783 200.524 184.726 198.045L184.273 197.906C175.708 195.166 163.175 191.209 147.645 192.841C153.203 197.293 158.855 202.619 164.164 208.979C168.58 207.492 173.849 208.701 177.228 212.493C181.464 217.239 181.059 224.028 176.345 227.663C171.631 231.297 164.368 230.408 160.132 225.662C156.292 221.352 156.453 215.45 160.027 211.668C150.393 200.238 139.507 192.293 130.397 186.968C128.609 196.79 129.963 211.405 130.93 219.301C133.299 219.898 135.587 221.031 137.339 222.975C141.575 227.721 141.171 234.51 136.457 238.145C131.743 241.779 124.479 240.89 120.243 236.144C116.007 231.398 116.411 224.609 121.125 220.974C122.48 219.925 124.065 219.352 125.699 219.044C124.646 210.412 123.298 194.753 125.62 184.316C119.76 181.243 115.109 179.386 112.653 178.512C110.741 183.192 105.59 185.85 100.032 184.392C93.826 182.765 89.717 176.761 90.8855 170.992C91.4004 168.393 92.9829 166.398 95.0311 165.013C93.3346 162.291 88.5654 156.107 79.2443 152.508C71.4153 155.329 63.2966 158.6 55.1523 162.307C64.3489 164.675 71.9211 171.927 76.6108 177.512C77.8001 177.444 79.0158 177.422 80.2852 177.734C86.5116 179.293 90.6792 185.264 89.5842 191.058C88.4893 196.851 82.5476 200.278 76.3327 198.708C70.1063 197.15 65.9386 191.179 67.0336 185.385C67.5527 182.636 69.2223 180.46 71.4383 179.058C65.6284 172.557 56.1413 164.629 45.7862 166.837C39.7503 169.848 33.7814 172.987 28.1142 176.365C32.1292 177.801 35.2836 180.291 37.3508 182.267C39.318 181.636 41.472 181.355 43.743 181.927C49.9694 183.485 54.137 189.456 53.0421 195.25C51.9471 201.044 46.0052 204.47 39.7903 202.901C33.5639 201.342 29.3963 195.371 30.4912 189.577C30.8514 187.707 31.833 186.199 33.0425 184.904C30.506 182.708 26.5401 180.138 22.0033 180.245C11.5455 186.946 2.16093 194.125 -4.71426 201.595C-5.62685 202.578 -7.26331 202.621 -8.37324 201.671L-8.47453 201.577C-9.48794 200.63 -9.61424 199.135 -8.74873 198.174C-5.05492 194.154 -0.535731 190.25 4.30082 186.424C4.31535 186.241 4.23336 186.055 4.29617 185.873C6.428 179.169 8.39095 170.385 10.1549 161.021C-0.0203585 150.069 -5.41505 138.603 -6.55226 125.37C-11.7618 123.21 -15.1288 118.031 -14.1601 112.819C-13.0651 107.025 -7.12345 103.598 -0.908513 105.168C5.31788 106.727 9.48552 112.698 8.39055 118.492C7.50106 123.145 3.47628 126.134 -1.29467 126.373C-0.206147 136.829 3.88027 146.089 11.2456 154.918C15.3172 131.608 18.0408 106.71 18.6204 101.2C13.3053 99.0941 9.83778 93.8431 10.8397 88.5742C11.9347 82.7805 17.8765 79.3538 24.0915 80.9237C30.3179 82.4825 34.4855 88.4534 33.3905 94.2472C32.524 98.8778 28.5349 101.857 23.8019 102.131C23.5544 104.544 22.9404 110.088 22.058 117.413C33.0372 110.545 42.3245 103.58 50.1988 96.3227C49.0506 94.1789 48.4315 91.7868 48.8835 89.3688C49.9785 83.5751 55.9204 80.1484 62.1353 81.7183C68.3617 83.2771 72.5294 89.248 71.4344 95.0418C70.3394 100.835 64.3975 104.262 58.1826 102.692C56.4372 102.263 54.923 101.416 53.5681 100.39C44.6214 108.568 34.0292 116.388 21.2384 124.098C20.0647 133.226 18.5189 143.996 16.7003 154.619L31.5312 143.987C30.0355 141.65 29.2894 138.899 29.8085 136.15C30.9034 130.356 36.8451 126.929 43.0601 128.499C49.2865 130.058 53.4541 136.029 52.3591 141.823C51.2642 147.616 45.3224 151.043 39.1075 149.473C37.7036 149.123 36.4415 148.489 35.2814 147.733L15.4099 161.978C15.4099 161.978 15.4099 161.978 15.3869 162C14.0968 168.901 12.6818 175.488 11.1639 181.258C26.547 170.355 45.4265 160.645 63.6844 153.107C72.7064 145.677 74.4697 136.072 74.4414 129.534C73.7633 129.469 73.1303 129.576 72.4461 129.396C66.2403 127.769 62.1312 121.765 63.2998 115.996C64.4557 110.216 70.4367 106.848 76.6425 108.475C82.8484 110.102 86.9575 116.105 85.7889 121.874C85.1103 125.26 82.6932 127.655 79.6114 128.86C79.7866 134.29 78.7345 141.828 74.1456 149.01C75.3627 148.553 76.6016 148.05 77.8085 147.627C77.8429 147.593 77.8797 147.606 77.9268 147.584C83.0126 145.761 87.9861 144.095 92.6729 142.707C95.4855 141.883 98.6516 140.91 102.006 139.85C102.051 139.782 102.009 139.678 102.078 139.611C109.634 130.177 102.525 117.261 102.458 117.133C102.42 117.098 102.465 117.03 102.438 116.984C101.272 117.03 100.08 117.052 98.8704 116.73C92.6645 115.103 88.5554 109.099 89.724 103.331C90.8799 97.5502 96.8609 94.1819 103.067 95.8089C109.273 97.4359 113.382 103.44 112.213 109.208C111.63 112.115 109.81 114.413 107.363 115.775C108.665 118.325 112.97 128.072 109.305 137.495C114.86 135.651 120.762 133.542 126.763 131.241C130.272 123.006 128.349 115.026 126.739 110.724C126.241 110.652 125.764 110.752 125.252 110.623C119.046 108.996 114.937 102.992 116.105 97.2234C117.261 91.443 123.242 88.0747 129.448 89.7017C135.654 91.3287 139.763 97.3323 138.594 103.101C137.877 106.669 135.246 109.127 131.931 110.245C133.435 114.578 134.883 121.307 133.115 128.744C142.388 124.979 151.409 120.759 159.137 116.227C158.719 114.678 158.538 113.067 158.863 111.448C160.019 105.667 166 102.299 172.206 103.926C178.412 105.553 182.521 111.557 181.352 117.325C180.196 123.106 174.215 126.474 168.01 124.847C165.407 124.163 163.302 122.61 161.673 120.716C153.931 125.214 145.053 129.392 135.91 133.126C142.091 137.746 148.612 140.081 154.062 141.09C155.594 135.814 161.17 132.766 167.094 134.304C173.3 135.931 177.409 141.935 176.24 147.704C175.084 153.484 169.103 156.852 162.897 155.225C158.219 153.999 154.748 150.296 153.817 146.083C146.97 144.861 138.519 141.792 130.728 135.187C124.091 137.768 117.515 140.121 111.381 142.166C116.376 144.847 120.759 148.703 123.568 151.503C126.05 149.89 129.257 149.239 132.605 150.117C138.811 151.744 142.92 157.747 141.751 163.516C140.595 169.296 134.614 172.665 128.408 171.038C122.202 169.411 118.093 163.407 119.262 157.638C119.454 156.704 119.933 155.949 120.361 155.148C116.545 151.297 110.09 145.833 104.213 144.49C100.751 145.582 97.4783 146.587 94.5831 147.442C91.7946 148.266 88.8113 149.28 85.8623 150.26C93.8878 154.658 98.1205 160.493 99.7422 163.167C101.191 162.992 102.738 163.083 104.278 163.495C109.311 164.812 112.783 168.997 113.373 173.613C117.297 174.921 128.875 179.274 141.987 188.558C146.633 187.765 151.025 187.435 155.172 187.465C156.387 186.044 166.681 174.144 179.916 166.172C179.095 162.455 180.122 158.586 183.296 156.133C188.01 152.499 195.273 153.388 199.51 158.134C203.746 162.88 203.341 169.669 198.627 173.303C193.913 176.938 186.649 176.049 182.413 171.303C182.287 171.184 182.278 171.023 182.163 170.894C173.353 176.381 165.821 183.741 161.962 187.825C171.553 188.748 179.517 191.275 185.595 193.22L185.692 193.246C186.328 192.026 187.233 190.905 188.415 190C193.129 186.365 200.392 187.255 204.629 192C208.865 196.746 208.46 203.535 203.746 207.17C199.032 210.805 191.768 209.915 187.532 205.169L187.509 205.191Z" fill="#FCE8D6"/>
<path d="M97.6345 446.644C97.6345 446.644 102.96 446.88 105.573 442.221C105.573 442.221 95.4232 436.143 100.206 424.838C100.206 424.838 104.977 428.052 114.965 426.659C121.772 425.723 126.607 426.943 129.039 427.817C138.596 405.964 129.495 385.134 120.748 374.075C121.786 378.475 121.506 383.042 119.61 386.886C116.788 392.594 110.754 396.569 103.873 397.239C106.315 394.168 111.624 388.315 108.342 374.606C106.567 367.157 99.8804 359.793 93.5874 354.654C89.4915 353.054 85.2435 351.772 80.8874 350.956C73.5374 349.57 66.346 349.142 59.3317 349.337C63.818 350.799 68.0959 353.115 71.5976 356.257C74.8839 359.197 77.5039 362.761 79.2454 366.573C80.2802 368.851 85.3157 382.21 71.8633 391.093C73.2774 389.793 71.9226 384.157 71.482 382.412C70.6937 379.316 69.1868 376.531 67.2948 373.757C62.9517 367.426 57.2701 361.766 50.6982 357.284C47.8991 355.367 42.7018 352.52 38.6262 351.769C28.7683 353.808 19.6388 356.878 11.5181 360.344C12.1172 360.51 12.7575 360.541 13.3155 360.844C15.3474 361.912 26.672 368.804 24.5632 383.33C24.2481 381.681 20.2766 378.078 18.8541 377.142C10.9544 371.921 0.685199 368.856 -7.81373 370.155C-15.6215 374.766 -21.2148 378.868 -23.6928 380.791C-24.6886 381.564 -26.2012 381.44 -27.1766 380.528C-27.2399 380.469 -27.3033 380.41 -27.3793 380.339C-28.3402 379.244 -28.2643 377.698 -27.1871 376.87C-23.6445 374.106 -13.9172 367.029 -0.214352 360.172C8.14947 354.442 16.2361 342.947 18.6761 332.686C19.0428 331.172 19.6691 327.016 18.4863 325.364C31.0573 335.125 27.5619 346.169 26.833 348.132C26.5897 348.779 26.0495 349.279 25.6324 349.829C34.6603 347.123 44.4772 345.221 54.7704 344.593C58.7889 342.406 65.578 338.133 71.4405 331.573C77.6331 324.644 81.9637 312.982 81.5243 300.882C81.5243 300.882 97.423 314.605 89.1778 333.905C87.4275 337.994 82.5185 342.276 75.7012 345.322C77.06 345.499 78.3934 345.653 79.7672 345.889C79.8637 345.891 79.9313 345.801 80.0405 345.816C85.6572 346.543 91.032 346.563 96.1874 346.072C103.916 340.645 120.286 325.333 111.648 297.224C111.648 297.224 131.74 309.339 126.204 328.592C125.152 332.219 122.295 336.562 117.97 340.495C125.63 337.21 132.58 332.781 138.848 327.758C155.839 302.43 127.044 276.872 127.044 276.872C127.044 276.872 138.022 274.832 147.538 284.687C157.385 294.895 156.987 305.274 155.185 311.827C167.669 297.318 175.447 282.454 178.327 276.472C175.896 275.14 172.07 272.481 168.337 267.441C162.219 259.188 156.638 257.992 156.638 257.992C161.002 246.514 172.345 249.599 172.345 249.599C173.7 244.398 169.759 240.693 169.759 240.693C179.451 238.018 185.514 245.214 185.514 245.214C191.461 233.118 201.307 234.783 201.307 234.783C201.307 234.783 208.722 241.56 203.072 253.803C203.072 253.803 212.416 254.146 216.375 263.505C216.375 263.505 211.066 262.673 207.894 266.984C207.894 266.984 217.325 274.072 211.179 284.672C211.179 284.672 206.794 280.988 196.602 281.251C190.153 281.429 185.592 279.919 183.112 278.803C181.417 282.331 178.134 288.68 173.288 296.256C177.269 294.274 182.281 293.343 188.517 294.627C197.129 296.405 211.877 307.48 208.51 321.682C193.781 300.596 168.952 306.886 162.199 311.631C158.928 315.675 155.297 319.731 151.309 323.651C162.523 320.127 172.92 322.175 178.927 325.539C200.3 337.496 196.868 357.362 196.868 357.362C174.411 329.512 144.496 333.474 138.447 334.616C135.406 336.843 132.213 338.906 128.877 340.792C142.258 341.368 152.703 349.186 157.845 354.887C176.118 375.091 165.008 393.068 165.008 393.068C159.983 379.216 149.606 366.939 139.415 360.299C126.156 351.664 115.929 348.944 111.694 348.132C107.138 349.489 102.37 350.473 97.3831 350.969C107.019 355.059 115.728 361.015 122.362 368.285C128.164 374.648 134.916 385.569 137.465 398.614C139.696 401.42 144.1 404.072 146.744 405.319C152.92 408.23 159.646 409.884 166.348 410.184C169.271 410.315 172.045 410.133 174.781 409.238C176.321 408.733 181.271 407.066 181.688 405.358C180.296 420.008 167.863 422.568 165.673 422.859C162.012 423.348 158.165 423.052 154.527 421.924C148.711 420.137 143.509 416.28 140.153 411.308C139.552 410.418 139.018 409.417 138.496 408.426C138.588 415.264 137.399 422.477 134.226 429.781C136.793 430.957 140.5 433.176 144.407 437.396C151.444 445 157.077 445.589 157.077 445.589C154.173 457.58 142.643 455.739 142.643 455.739C141.947 461.097 146.263 464.389 146.263 464.389C137.049 468.144 130.201 461.59 130.201 461.59C125.819 474.363 115.933 473.775 115.933 473.775C115.933 473.775 107.824 467.792 111.898 454.907C111.898 454.907 102.668 455.588 97.6345 446.644Z" fill="#FCE8D6"/>
<path d="M-153.703 205.221C-153.703 205.221 -155.566 194.238 -142.946 191.569C-142.946 191.569 -142.365 196.918 -134.411 203.654C-129.81 207.539 -127.484 211.243 -126.307 213.697C-115.183 209.367 -103.358 210.15 -94.4787 214.757C-96.2027 211.048 -96.9347 206.955 -95.5985 203.703C-89.5678 189.063 -75.854 192.332 -74.3035 192.951C-91.0054 203.058 -83.1408 221.901 -80.3619 227.121C-79.1068 228.774 -78.0309 230.457 -77.0962 232.205C-76.6506 224.821 -75.4414 216.141 -71.3948 204.344C-70.5053 201.767 -68.8003 198.422 -66.6354 194.197C-60.0435 181.305 -49.2666 159.958 -50.7562 136.06C-52.5252 135.871 -58.155 134.891 -64.962 129.6C-73.2126 123.199 -78.783 123.587 -78.783 123.587C-78.2291 111.125 -66.6925 111.005 -66.6925 111.005C-67.0264 105.537 -71.8346 102.987 -71.8346 102.987C-63.6055 97.6779 -55.7215 103.058 -55.7215 103.058C-53.8725 89.5572 -44.1826 88.4537 -44.1826 88.4537C-44.1826 88.4537 -35.1948 93.0523 -36.7149 106.62C-36.7149 106.62 -27.9045 104.367 -21.3372 112.45C-21.3372 112.45 -26.5439 113.111 -28.1932 118.212C-28.1932 118.212 -17.219 122.548 -19.7193 134.654C-19.7193 134.654 -24.9408 132.264 -34.3712 135.337C-38.9555 136.842 -42.7876 137.062 -45.5437 136.89C-45.0649 146.055 -46.1626 154.796 -48.2248 162.832C-43.152 157.763 -35.7943 153.3 -26.0954 154.674C-8.97837 157.125 -3.50762 176.506 -3.50762 176.506C-28.0799 158.893 -47.6161 174.02 -54.3438 180.623C-56.6726 186.094 -59.0682 190.978 -61.1655 195.114C-50.5793 184.644 -33.3955 183.99 -20.284 198.102C-20.284 198.102 -49.4035 189.392 -70.4395 221.012C-71.8868 228.596 -72.0538 234.623 -72.2093 240.181C-72.3221 244.249 -72.41 248.1 -72.9765 252.246C-73.0037 252.417 -73.1692 252.481 -73.2217 252.629C-73.7952 257.795 -75.3678 263.208 -78.0008 268.854C-62.6532 255.886 -48.449 247.094 -40.1494 242.44C-41.5414 240.243 -43.6321 235.973 -44.0267 229.574C-44.6563 219.83 -48.8825 215.968 -48.8825 215.968C-38.4066 209.153 -30.1976 217.525 -30.1976 217.525C-26.0025 214.104 -27.3352 209.122 -27.3352 209.122C-17.2524 212.079 -16.0663 220.944 -16.0663 220.944C-3.84975 214.467 3.86198 220.932 3.86198 220.932C3.86198 220.932 6.46605 230.183 -5.57987 236.929C-5.57987 236.929 2.44827 242.072 0.522603 251.569C0.522603 251.569 -3.68077 248.143 -8.96322 249.891C-8.96322 249.891 -4.76122 260.439 -16.3107 265.617C-16.3107 265.617 -18.053 260.405 -27.1764 255.286C-32.5878 252.261 -35.652 248.96 -37.2853 246.756C-44.3327 250.701 -55.8205 257.749 -68.6403 267.901C-56.611 264.527 -35.4956 263.483 -21.9992 290.496C-21.9992 290.496 -56.933 269.666 -84.2717 281.434C-87.3944 284.393 -90.5214 287.5 -93.602 290.805C-91.0223 292.211 -88.5097 293.947 -86.0998 296.025C-83.8545 297.949 -82.0022 299.964 -80.1739 301.979C-78.4618 302.923 -76.6936 303.789 -74.8293 304.418C-70.7442 305.81 -66.2728 306.297 -62.0724 305.285C-60.2163 304.835 -58.447 304.107 -56.7561 303.262C-52.3424 301.029 -48.0687 297.266 -47.8061 292.377C-45.7063 294.514 -44.2844 297.286 -43.7699 300.214C-42.5783 306.877 -46.276 313.822 -51.8927 317.705C-56.9518 321.192 -63.9549 322.294 -69.4032 319.715C-68.6997 321.88 -68.3433 324.092 -68.0223 326.315C-61.6112 333.946 -44.671 349.385 -18.1414 339.659C-18.1414 339.659 -24.5049 358.073 -41.6592 356.985C-53.4701 356.238 -62.9627 344.285 -67.7345 336.897C-68.0562 339.502 -68.6126 341.997 -69.3313 344.385C-70.3357 352.142 -68.7203 360.229 -64.9234 366.946C-60.5819 374.631 -53.2207 380.615 -44.5884 383.483C-52.6298 386.389 -61.5517 383.513 -68.427 378.988C-71.9211 376.683 -75.1647 373.87 -77.1367 370.257C-78.3887 367.973 -78.9612 365.318 -78.8325 362.707C-81.0622 365.692 -83.1132 367.949 -84.4615 369.354C-83.0798 371.585 -81.0385 375.831 -80.6578 382.196C-80.0765 391.938 -75.8618 395.811 -75.8618 395.811C-86.3643 402.579 -94.5503 394.185 -94.5503 394.185C-98.7706 397.582 -97.4496 402.575 -97.4496 402.575C-107.522 399.585 -108.673 390.709 -108.673 390.709C-120.928 397.127 -128.617 390.64 -128.617 390.64C-128.617 390.64 -131.186 381.379 -119.1 374.692C-119.1 374.692 -127.107 369.503 -125.143 360.042C-125.143 360.042 -120.963 363.49 -115.668 361.753C-115.668 361.753 -119.834 351.195 -108.258 346.064C-108.258 346.064 -106.54 351.275 -97.4267 356.428C-92.1625 359.403 -89.1146 362.624 -87.4686 364.839C-82.5435 359.479 -71.6945 345.737 -72.6419 329.448C-73.261 318.753 -78.8146 308.624 -89.4188 299.609C-91.8413 297.519 -94.4179 295.942 -97.0651 294.625C-103.097 301.398 -108.912 308.877 -114.222 317.001C-100.278 310.151 -78.2313 321.864 -84.476 346.246C-84.476 346.246 -92.81 330.175 -104.575 327.307C-111.495 325.625 -117.919 327.661 -123.694 333.364C-134.044 353.886 -140.69 377.958 -139.906 405.654C-139.898 405.791 -140.027 405.868 -140.045 405.982C-138.437 412.096 -137.934 418.028 -138.912 423.516C-139.422 426.448 -140.246 429.348 -141.34 432.172C-141.829 433.419 -143.318 433.971 -144.673 433.404C-145.006 433.268 -145.281 433.077 -145.534 432.84C-146.294 432.13 -146.603 431.054 -146.242 430.124C-145.242 427.585 -144.5 424.957 -144.047 422.321C-143.852 421.215 -143.889 420.044 -143.804 418.9C-144.463 415.291 -147.254 407.766 -159.05 399.908C-165.279 395.769 -175.779 392.904 -185.015 394.628C-185.015 394.628 -171.241 379.206 -151.343 391.774C-155.223 384.39 -158.258 377.03 -160.442 369.81C-165.18 361.689 -178.851 342.4 -202.794 340.998C-202.794 340.998 -184.726 319.67 -164.381 349.545C-164.709 345.349 -164.742 341.254 -164.443 337.295C-166.479 330.606 -177.658 299.051 -209.906 292.967C-209.906 292.967 -195.299 277.822 -176.107 291.848C-165.032 299.949 -161.273 310.782 -160.818 320.187C-159.11 315.513 -156.881 311.128 -154.028 307.175C-153.578 301.718 -153.247 282.909 -167.531 267.111C-183.76 249.146 -199.397 248.034 -199.397 248.034C-199.397 248.034 -174.314 233.918 -153.699 260.418C-140.678 277.176 -143.5 291.429 -147.347 299.676C-147.037 299.376 -146.764 299.062 -146.429 298.786C-142.076 294.922 -136.904 291.76 -131.334 289.515C-124.182 284.357 -119.537 275.697 -119.183 270.02C-118.443 258.126 -127.185 252.709 -127.185 252.709C-127.185 252.709 -121.819 249.552 -113.962 255.562C-106.068 261.608 -102.052 274.123 -111.988 284.13C-112.686 284.832 -113.407 285.338 -114.135 285.925C-108.935 285.825 -103.698 286.678 -98.6322 288.616C-97.0466 286.908 -95.4599 285.223 -93.8696 283.606C-94.1611 283.793 -94.4833 284.081 -94.8213 284.53C-87.0993 271.821 -91.9365 250.497 -111.805 241.038C-99.7023 230.544 -78.9939 247.54 -83.3621 267.71C-80.4823 261.946 -78.6821 256.505 -78.1521 251.429C-78.1545 251.383 -78.1811 251.336 -78.1709 251.302C-78.1267 250.994 -78.1308 250.684 -78.0867 250.376C-77.2466 239.013 -82.297 229.289 -93.4155 221.038C-101.124 215.319 -113.186 213.921 -124.431 218.466C-123.526 220.797 -122.287 225.386 -123.312 231.813C-124.829 241.298 -121.483 245.846 -121.483 245.846C-133.394 250.313 -139.732 240.632 -139.732 240.632C-144.665 243.079 -144.436 248.143 -144.436 248.143C-153.822 243.304 -153.051 234.542 -153.051 234.542C-166.636 238.341 -172.873 230.589 -172.873 230.589C-172.873 230.589 -173.425 221.18 -159.963 217.091C-159.963 217.091 -166.812 210.537 -162.822 201.812C-162.822 201.812 -159.401 205.949 -153.747 205.312L-153.703 205.221ZM-142.718 302.472C-164.033 321.378 -165.133 356.598 -145.527 392.163C-145.301 392.571 -145.158 392.988 -144.944 393.407C-142.946 350.919 -123.988 317.357 -102.166 292.48C-116.411 288.037 -132.124 293.081 -142.718 302.472ZM-86.5227 276.402C-86.5227 276.402 -86.5353 276.39 -86.548 276.378L-86.58 276.458C-86.58 276.458 -86.5456 276.424 -86.5341 276.413L-86.5227 276.402Z" fill="#FCE8D6"/>
<path d="M-138.122 474.156C-139.133 474.872 -140.587 474.714 -141.524 473.838C-141.613 473.755 -141.702 473.672 -141.791 473.566C-142.705 472.45 -142.557 470.906 -141.453 470.125C-140.698 469.585 -134.06 464.951 -123.416 459.277C-120.665 454.507 -111.881 435.842 -131.966 419.932C-131.966 419.932 -110.178 419.08 -107.212 438.261C-106.265 444.39 -108.279 449.675 -112.331 453.753C-106.461 451.024 -99.8074 448.306 -92.6488 445.798C-90.0603 443.454 -86.4589 438.124 -88.8597 427.228C-91.6714 414.462 -100.229 408.867 -100.229 408.867C-100.229 408.867 -78.3743 408.602 -75.4547 425.97C-74.0897 434.106 -76.5384 438.897 -80.3562 441.927C-74.5368 440.309 -68.4503 438.962 -62.1549 437.919C-56.5784 435.113 -37.688 423.075 -54.5979 394.379C-54.5979 394.379 -38.8919 397.959 -35.6472 413.708C-33.1448 425.857 -38.6711 432.622 -45.0957 436.034C-38.7517 435.693 -32.3058 435.687 -25.769 436.269C-25.4058 436.302 -25.0921 436.311 -24.7288 436.345C1.46667 415.381 -16.0509 389.351 -16.0509 389.351C-16.0509 389.351 1.22046 394.525 2.4901 413.06C3.55545 428.608 -7.88511 434.717 -15.4026 437.043C-5.97204 437.664 2.5108 437.901 10.1737 437.896C11.8712 436.948 22.4683 430.378 21.1444 413.802C20.0472 399.951 12.4673 392.779 12.4673 392.779C12.4673 392.779 31.0827 396.696 34.7845 415.429C37.4181 428.706 29.5453 434.611 22.7752 437.635C32.5735 437.223 40.4816 436.377 46.7944 435.438C50.6797 430.701 60.1059 414.865 40.494 388.647C40.494 388.647 58.971 391.299 64.2531 412.142C67.4703 424.828 59.8044 431.232 53.2919 434.344C59.1009 433.219 62.6612 432.176 64.2356 431.637L64.2102 431.614C64.2102 431.614 70.4127 423.951 80.6509 417.199C92.4039 409.458 95.8296 407.919 99.7071 402.803C99.7071 402.803 109.027 429.43 66.6188 436.203C65.1156 436.721 61.7128 437.779 56.2417 438.915C63.6095 439.027 73.203 441.614 78.0919 453.088C86.636 473.178 71.7377 478.831 71.7377 478.831C71.3811 449.175 52.4661 441.831 47.6088 440.416C40.8054 441.421 32.1389 442.279 21.4832 442.655C27.5968 444.13 34.885 447.795 39.1659 456.625C46.8882 472.517 36.9186 483.257 27.3458 484.295C27.3458 484.295 32.8241 479.146 27.0998 462.522C22.8537 450.206 15.9213 444.819 12.6003 442.83C5.63851 442.878 -2.0467 442.687 -10.4932 442.221C-4.89687 444.175 1.04876 448.661 4.10021 458.636C10.3454 479.003 -12.1273 484.743 -12.1273 484.743C2.52338 463.28 -22.1126 442.374 -23.3848 441.316C-24.2078 441.246 -24.9685 441.212 -25.8042 441.13C-34.2054 440.379 -42.4825 440.618 -50.5619 441.413C-43.1419 442.296 -34.6554 446.295 -29.9942 458.714C-21.021 482.636 -47.8556 486.987 -47.8556 486.987C-47.8556 486.987 -37.3658 478.131 -42.4546 463.062C-46.8736 449.974 -56.4227 444.085 -62.3192 443.075C-69.6126 444.387 -76.6305 446.131 -83.2592 448.172C-75.9907 447.537 -66.2889 449.656 -60.2758 462.815C-51.6783 481.622 -69.8283 493.762 -69.8283 493.762C-69.8283 493.762 -65.1978 480.457 -72.1942 466.467C-78.3987 454.026 -88.0394 451.461 -91.5491 450.934C-100.515 454.134 -108.535 457.672 -115.312 461.04C-107.551 459.444 -99.7584 461.003 -94.8998 466.593C-81.5291 481.974 -95.2113 496.607 -95.2113 496.607C-95.6478 471.881 -116.441 466.168 -122.937 464.991C-132.309 470.106 -137.9 474.013 -138.075 474.134L-138.122 474.156Z" fill="#FCE8D6"/>
</svg>
